<mxfile host="app.diagrams.net" agent="Mozilla/5.0 (Windows NT 10.0; Win64; x64) AppleWebKit/537.36 (KHTML, like Gecko) Chrome/131.0.0.0 Safari/537.36 Edg/131.0.0.0" version="24.9.1">
  <diagram name="第 1 页" id="o77j__sHyZgadv8Ipvnb">
    <mxGraphModel dx="1042" dy="565" grid="1" gridSize="10" guides="1" tooltips="1" connect="1" arrows="1" fold="1" page="1" pageScale="1" pageWidth="827" pageHeight="1169" math="0" shadow="0">
      <root>
        <mxCell id="0" />
        <mxCell id="1" parent="0" />
        <mxCell id="Uex5wXFicoJJ6WkRGopS-64" value="" style="rounded=0;whiteSpace=wrap;html=1;" vertex="1" parent="1">
          <mxGeometry x="470" y="160" width="120" height="340" as="geometry" />
        </mxCell>
        <mxCell id="Uex5wXFicoJJ6WkRGopS-26" value="" style="rounded=0;whiteSpace=wrap;html=1;dashed=1;" vertex="1" parent="1">
          <mxGeometry x="320" y="120" width="420" height="410" as="geometry" />
        </mxCell>
        <mxCell id="Uex5wXFicoJJ6WkRGopS-1" value="数据库表1" style="rounded=0;whiteSpace=wrap;html=1;" vertex="1" parent="1">
          <mxGeometry x="360" y="170" width="70" height="60" as="geometry" />
        </mxCell>
        <mxCell id="Uex5wXFicoJJ6WkRGopS-2" value="数据同步任务" style="rounded=0;whiteSpace=wrap;html=1;" vertex="1" parent="1">
          <mxGeometry x="480" y="170" width="90" height="60" as="geometry" />
        </mxCell>
        <mxCell id="Uex5wXFicoJJ6WkRGopS-31" value="" style="edgeStyle=orthogonalEdgeStyle;rounded=0;orthogonalLoop=1;jettySize=auto;html=1;" edge="1" parent="1" source="Uex5wXFicoJJ6WkRGopS-3" target="Uex5wXFicoJJ6WkRGopS-2">
          <mxGeometry relative="1" as="geometry" />
        </mxCell>
        <mxCell id="Uex5wXFicoJJ6WkRGopS-3" value="数仓表1" style="rounded=0;whiteSpace=wrap;html=1;" vertex="1" parent="1">
          <mxGeometry x="610" y="170" width="90" height="60" as="geometry" />
        </mxCell>
        <mxCell id="Uex5wXFicoJJ6WkRGopS-7" value="数据库表2" style="rounded=0;whiteSpace=wrap;html=1;" vertex="1" parent="1">
          <mxGeometry x="360" y="270" width="70" height="60" as="geometry" />
        </mxCell>
        <mxCell id="Uex5wXFicoJJ6WkRGopS-9" value="数据同步任务" style="rounded=0;whiteSpace=wrap;html=1;" vertex="1" parent="1">
          <mxGeometry x="480" y="270" width="90" height="60" as="geometry" />
        </mxCell>
        <mxCell id="Uex5wXFicoJJ6WkRGopS-33" value="" style="edgeStyle=orthogonalEdgeStyle;rounded=0;orthogonalLoop=1;jettySize=auto;html=1;" edge="1" parent="1" source="Uex5wXFicoJJ6WkRGopS-10" target="Uex5wXFicoJJ6WkRGopS-9">
          <mxGeometry relative="1" as="geometry" />
        </mxCell>
        <mxCell id="Uex5wXFicoJJ6WkRGopS-10" value="数仓表2" style="rounded=0;whiteSpace=wrap;html=1;" vertex="1" parent="1">
          <mxGeometry x="610" y="270" width="90" height="60" as="geometry" />
        </mxCell>
        <mxCell id="Uex5wXFicoJJ6WkRGopS-47" value="" style="edgeStyle=orthogonalEdgeStyle;rounded=0;orthogonalLoop=1;jettySize=auto;html=1;endArrow=none;endFill=0;dashed=1;dashPattern=1 4;" edge="1" parent="1" source="Uex5wXFicoJJ6WkRGopS-12" target="Uex5wXFicoJJ6WkRGopS-42">
          <mxGeometry relative="1" as="geometry" />
        </mxCell>
        <mxCell id="Uex5wXFicoJJ6WkRGopS-12" value="数据库表3" style="rounded=0;whiteSpace=wrap;html=1;" vertex="1" parent="1">
          <mxGeometry x="360" y="350" width="70" height="60" as="geometry" />
        </mxCell>
        <mxCell id="Uex5wXFicoJJ6WkRGopS-48" value="" style="edgeStyle=orthogonalEdgeStyle;rounded=0;orthogonalLoop=1;jettySize=auto;html=1;endArrow=none;endFill=0;dashed=1;dashPattern=1 2;" edge="1" parent="1" source="Uex5wXFicoJJ6WkRGopS-14" target="Uex5wXFicoJJ6WkRGopS-44">
          <mxGeometry relative="1" as="geometry" />
        </mxCell>
        <mxCell id="Uex5wXFicoJJ6WkRGopS-14" value="数据同步任务" style="rounded=0;whiteSpace=wrap;html=1;" vertex="1" parent="1">
          <mxGeometry x="480" y="350" width="90" height="60" as="geometry" />
        </mxCell>
        <mxCell id="Uex5wXFicoJJ6WkRGopS-49" value="" style="edgeStyle=orthogonalEdgeStyle;rounded=0;orthogonalLoop=1;jettySize=auto;html=1;endArrow=none;endFill=0;dashed=1;dashPattern=1 2;" edge="1" parent="1" source="Uex5wXFicoJJ6WkRGopS-15" target="Uex5wXFicoJJ6WkRGopS-46">
          <mxGeometry relative="1" as="geometry" />
        </mxCell>
        <mxCell id="Uex5wXFicoJJ6WkRGopS-15" value="数仓表3" style="rounded=0;whiteSpace=wrap;html=1;" vertex="1" parent="1">
          <mxGeometry x="610" y="350" width="90" height="60" as="geometry" />
        </mxCell>
        <mxCell id="Uex5wXFicoJJ6WkRGopS-76" value="" style="edgeStyle=orthogonalEdgeStyle;rounded=0;orthogonalLoop=1;jettySize=auto;html=1;" edge="1" parent="1" source="Uex5wXFicoJJ6WkRGopS-16" target="Uex5wXFicoJJ6WkRGopS-75">
          <mxGeometry relative="1" as="geometry" />
        </mxCell>
        <mxCell id="Uex5wXFicoJJ6WkRGopS-16" value="" style="rounded=0;whiteSpace=wrap;html=1;" vertex="1" parent="1">
          <mxGeometry x="20" y="165" width="230" height="195" as="geometry" />
        </mxCell>
        <mxCell id="Uex5wXFicoJJ6WkRGopS-17" value="&lt;b&gt;&lt;font style=&quot;font-size: 14px;&quot;&gt;用数应用&lt;/font&gt;&lt;/b&gt;" style="text;html=1;align=center;verticalAlign=middle;whiteSpace=wrap;rounded=0;" vertex="1" parent="1">
          <mxGeometry x="20" y="170" width="60" height="30" as="geometry" />
        </mxCell>
        <mxCell id="Uex5wXFicoJJ6WkRGopS-59" style="edgeStyle=orthogonalEdgeStyle;rounded=0;orthogonalLoop=1;jettySize=auto;html=1;entryX=0;entryY=0.5;entryDx=0;entryDy=0;" edge="1" parent="1" source="Uex5wXFicoJJ6WkRGopS-19" target="Uex5wXFicoJJ6WkRGopS-23">
          <mxGeometry relative="1" as="geometry" />
        </mxCell>
        <mxCell id="Uex5wXFicoJJ6WkRGopS-62" style="edgeStyle=orthogonalEdgeStyle;rounded=0;orthogonalLoop=1;jettySize=auto;html=1;entryX=0;entryY=0.5;entryDx=0;entryDy=0;" edge="1" parent="1" source="Uex5wXFicoJJ6WkRGopS-19" target="Uex5wXFicoJJ6WkRGopS-21">
          <mxGeometry relative="1" as="geometry" />
        </mxCell>
        <mxCell id="Uex5wXFicoJJ6WkRGopS-19" value="子模块2" style="rounded=0;whiteSpace=wrap;html=1;" vertex="1" parent="1">
          <mxGeometry x="85" y="200" width="55" height="30" as="geometry" />
        </mxCell>
        <mxCell id="Uex5wXFicoJJ6WkRGopS-57" style="edgeStyle=orthogonalEdgeStyle;rounded=0;orthogonalLoop=1;jettySize=auto;html=1;entryX=0;entryY=0.5;entryDx=0;entryDy=0;" edge="1" parent="1" source="Uex5wXFicoJJ6WkRGopS-20" target="Uex5wXFicoJJ6WkRGopS-19">
          <mxGeometry relative="1" as="geometry" />
        </mxCell>
        <mxCell id="Uex5wXFicoJJ6WkRGopS-58" style="edgeStyle=orthogonalEdgeStyle;rounded=0;orthogonalLoop=1;jettySize=auto;html=1;entryX=0;entryY=0.5;entryDx=0;entryDy=0;" edge="1" parent="1" source="Uex5wXFicoJJ6WkRGopS-20" target="Uex5wXFicoJJ6WkRGopS-22">
          <mxGeometry relative="1" as="geometry" />
        </mxCell>
        <mxCell id="Uex5wXFicoJJ6WkRGopS-20" value="子模块1" style="rounded=0;whiteSpace=wrap;html=1;" vertex="1" parent="1">
          <mxGeometry x="30" y="250" width="55" height="30" as="geometry" />
        </mxCell>
        <mxCell id="Uex5wXFicoJJ6WkRGopS-21" value="子模块5" style="rounded=0;whiteSpace=wrap;html=1;" vertex="1" parent="1">
          <mxGeometry x="185" y="240" width="55" height="30" as="geometry" />
        </mxCell>
        <mxCell id="Uex5wXFicoJJ6WkRGopS-22" value="子模块3" style="rounded=0;whiteSpace=wrap;html=1;" vertex="1" parent="1">
          <mxGeometry x="85" y="300" width="55" height="30" as="geometry" />
        </mxCell>
        <mxCell id="Uex5wXFicoJJ6WkRGopS-63" style="edgeStyle=orthogonalEdgeStyle;rounded=0;orthogonalLoop=1;jettySize=auto;html=1;entryX=0;entryY=0.5;entryDx=0;entryDy=0;" edge="1" parent="1" source="Uex5wXFicoJJ6WkRGopS-23" target="Uex5wXFicoJJ6WkRGopS-26">
          <mxGeometry relative="1" as="geometry" />
        </mxCell>
        <mxCell id="Uex5wXFicoJJ6WkRGopS-66" value="" style="rounded=0;whiteSpace=wrap;html=1;dashed=1;" vertex="1" parent="1">
          <mxGeometry x="455" y="130" width="155" height="390" as="geometry" />
        </mxCell>
        <mxCell id="Uex5wXFicoJJ6WkRGopS-23" value="子模块4" style="rounded=0;whiteSpace=wrap;html=1;" vertex="1" parent="1">
          <mxGeometry x="185" y="170" width="55" height="30" as="geometry" />
        </mxCell>
        <mxCell id="Uex5wXFicoJJ6WkRGopS-38" value="依赖" style="text;html=1;align=center;verticalAlign=middle;whiteSpace=wrap;rounded=0;" vertex="1" parent="1">
          <mxGeometry x="270" y="300" width="60" height="30" as="geometry" />
        </mxCell>
        <mxCell id="Uex5wXFicoJJ6WkRGopS-42" value="数据库表n" style="rounded=0;whiteSpace=wrap;html=1;" vertex="1" parent="1">
          <mxGeometry x="360" y="440" width="70" height="60" as="geometry" />
        </mxCell>
        <mxCell id="Uex5wXFicoJJ6WkRGopS-44" value="数据同步任务4" style="rounded=0;whiteSpace=wrap;html=1;" vertex="1" parent="1">
          <mxGeometry x="480" y="440" width="90" height="60" as="geometry" />
        </mxCell>
        <mxCell id="Uex5wXFicoJJ6WkRGopS-45" value="" style="edgeStyle=orthogonalEdgeStyle;rounded=0;orthogonalLoop=1;jettySize=auto;html=1;" edge="1" parent="1" source="Uex5wXFicoJJ6WkRGopS-46" target="Uex5wXFicoJJ6WkRGopS-44">
          <mxGeometry relative="1" as="geometry" />
        </mxCell>
        <mxCell id="Uex5wXFicoJJ6WkRGopS-46" value="数仓表n" style="rounded=0;whiteSpace=wrap;html=1;" vertex="1" parent="1">
          <mxGeometry x="610" y="440" width="90" height="60" as="geometry" />
        </mxCell>
        <mxCell id="Uex5wXFicoJJ6WkRGopS-55" style="edgeStyle=orthogonalEdgeStyle;rounded=0;orthogonalLoop=1;jettySize=auto;html=1;exitX=0.5;exitY=1;exitDx=0;exitDy=0;" edge="1" parent="1" source="Uex5wXFicoJJ6WkRGopS-21" target="Uex5wXFicoJJ6WkRGopS-21">
          <mxGeometry relative="1" as="geometry" />
        </mxCell>
        <mxCell id="Uex5wXFicoJJ6WkRGopS-67" value="数据同步任务3" style="rounded=0;whiteSpace=wrap;html=1;" vertex="1" parent="1">
          <mxGeometry x="480" y="350" width="90" height="60" as="geometry" />
        </mxCell>
        <mxCell id="Uex5wXFicoJJ6WkRGopS-68" value="数据同步任务1" style="rounded=0;whiteSpace=wrap;html=1;" vertex="1" parent="1">
          <mxGeometry x="480" y="170" width="90" height="60" as="geometry" />
        </mxCell>
        <mxCell id="Uex5wXFicoJJ6WkRGopS-69" value="数据同步任务2" style="rounded=0;whiteSpace=wrap;html=1;" vertex="1" parent="1">
          <mxGeometry x="480" y="270" width="90" height="60" as="geometry" />
        </mxCell>
        <mxCell id="Uex5wXFicoJJ6WkRGopS-34" value="" style="edgeStyle=orthogonalEdgeStyle;rounded=0;orthogonalLoop=1;jettySize=auto;html=1;" edge="1" parent="1" source="Uex5wXFicoJJ6WkRGopS-9" target="Uex5wXFicoJJ6WkRGopS-7">
          <mxGeometry relative="1" as="geometry" />
        </mxCell>
        <mxCell id="Uex5wXFicoJJ6WkRGopS-32" value="" style="edgeStyle=orthogonalEdgeStyle;rounded=0;orthogonalLoop=1;jettySize=auto;html=1;" edge="1" parent="1" source="Uex5wXFicoJJ6WkRGopS-2" target="Uex5wXFicoJJ6WkRGopS-1">
          <mxGeometry relative="1" as="geometry" />
        </mxCell>
        <mxCell id="Uex5wXFicoJJ6WkRGopS-35" value="" style="edgeStyle=orthogonalEdgeStyle;rounded=0;orthogonalLoop=1;jettySize=auto;html=1;" edge="1" parent="1" source="Uex5wXFicoJJ6WkRGopS-14" target="Uex5wXFicoJJ6WkRGopS-12">
          <mxGeometry relative="1" as="geometry" />
        </mxCell>
        <mxCell id="Uex5wXFicoJJ6WkRGopS-43" value="" style="edgeStyle=orthogonalEdgeStyle;rounded=0;orthogonalLoop=1;jettySize=auto;html=1;" edge="1" parent="1" source="Uex5wXFicoJJ6WkRGopS-44" target="Uex5wXFicoJJ6WkRGopS-42">
          <mxGeometry relative="1" as="geometry" />
        </mxCell>
        <mxCell id="Uex5wXFicoJJ6WkRGopS-36" value="" style="edgeStyle=orthogonalEdgeStyle;rounded=0;orthogonalLoop=1;jettySize=auto;html=1;" edge="1" parent="1" source="Uex5wXFicoJJ6WkRGopS-15" target="Uex5wXFicoJJ6WkRGopS-14">
          <mxGeometry relative="1" as="geometry" />
        </mxCell>
        <mxCell id="Uex5wXFicoJJ6WkRGopS-71" value="" style="edgeStyle=orthogonalEdgeStyle;rounded=0;orthogonalLoop=1;jettySize=auto;html=1;" edge="1" parent="1" source="Uex5wXFicoJJ6WkRGopS-10" target="Uex5wXFicoJJ6WkRGopS-69">
          <mxGeometry relative="1" as="geometry" />
        </mxCell>
        <mxCell id="Uex5wXFicoJJ6WkRGopS-70" value="" style="edgeStyle=orthogonalEdgeStyle;rounded=0;orthogonalLoop=1;jettySize=auto;html=1;" edge="1" parent="1" source="Uex5wXFicoJJ6WkRGopS-3" target="Uex5wXFicoJJ6WkRGopS-68">
          <mxGeometry relative="1" as="geometry" />
        </mxCell>
        <mxCell id="Uex5wXFicoJJ6WkRGopS-74" value="&lt;b&gt;&lt;font style=&quot;font-size: 13px;&quot;&gt;数据同步系统&lt;/font&gt;&lt;/b&gt;" style="text;html=1;align=center;verticalAlign=middle;whiteSpace=wrap;rounded=0;" vertex="1" parent="1">
          <mxGeometry x="460" y="135" width="80" height="30" as="geometry" />
        </mxCell>
        <mxCell id="Uex5wXFicoJJ6WkRGopS-78" style="edgeStyle=orthogonalEdgeStyle;rounded=0;orthogonalLoop=1;jettySize=auto;html=1;endArrow=classic;endFill=1;" edge="1" parent="1" source="Uex5wXFicoJJ6WkRGopS-75" target="Uex5wXFicoJJ6WkRGopS-66">
          <mxGeometry relative="1" as="geometry">
            <mxPoint x="520" y="590" as="targetPoint" />
            <Array as="points">
              <mxPoint x="135" y="590" />
              <mxPoint x="533" y="590" />
            </Array>
          </mxGeometry>
        </mxCell>
        <mxCell id="Uex5wXFicoJJ6WkRGopS-75" value="准点监控" style="rounded=0;whiteSpace=wrap;html=1;" vertex="1" parent="1">
          <mxGeometry x="75" y="410" width="120" height="60" as="geometry" />
        </mxCell>
        <mxCell id="Uex5wXFicoJJ6WkRGopS-77" value="注册" style="text;html=1;align=center;verticalAlign=middle;whiteSpace=wrap;rounded=0;" vertex="1" parent="1">
          <mxGeometry x="125" y="365" width="60" height="30" as="geometry" />
        </mxCell>
        <mxCell id="Uex5wXFicoJJ6WkRGopS-83" value="监控相关的全部同步任务" style="text;html=1;align=center;verticalAlign=middle;whiteSpace=wrap;rounded=0;" vertex="1" parent="1">
          <mxGeometry x="250" y="555" width="100" height="30" as="geometry" />
        </mxCell>
      </root>
    </mxGraphModel>
  </diagram>
</mxfile>
